HIERARCHY
ROOT root
{
	OFFSET 0.000000 0.000000 0.000000
	CHANNELS 6 Xposition Yposition Zposition Zrotation Yrotation Xrotation
	JOINT lhip
	{
		OFFSET 0.058581 -0.082280 -0.017664
		CHANNELS 3 Zrotation Yrotation Xrotation
		JOINT lknee
		{
			OFFSET 0.043451 -0.386469 0.008037
			CHANNELS 3 Zrotation Yrotation Xrotation
			JOINT lankle
			{
				OFFSET -0.014790 -0.426874 -0.037428
				CHANNELS 3 Zrotation Yrotation Xrotation
				JOINT ltoe
				{
					OFFSET 0.041054 -0.060286 0.122042
					CHANNELS 3 Zrotation Yrotation Xrotation
					End Site
					{
						OFFSET 0.000000 0.000000 0.000000
					}
				}
			}
		}
	}
	JOINT rhip
	{
		OFFSET -0.060310 -0.090513 -0.013543
		CHANNELS 3 Zrotation Yrotation Xrotation
		JOINT rknee
		{
			OFFSET -0.043257 -0.383688 -0.004843
			CHANNELS 3 Zrotation Yrotation Xrotation
			JOINT rankle
			{
				OFFSET 0.019056 -0.420046 -0.034562
				CHANNELS 3 Zrotation Yrotation Xrotation
				JOINT rtoe
				{
					OFFSET -0.034840 -0.062106 0.130323
					CHANNELS 3 Zrotation Yrotation Xrotation
					End Site
					{
						OFFSET 0.000000 0.000000 0.000000
					}
				}
			}
		}
	}
	JOINT lowerback
	{
		OFFSET 0.004439 0.124404 -0.038385
		CHANNELS 3 Zrotation Yrotation Xrotation
		JOINT upperback
		{
			OFFSET 0.004488 0.137956 0.026820
			CHANNELS 3 Zrotation Yrotation Xrotation
			JOINT chest
			{
				OFFSET -0.002265 0.056032 0.002855
				CHANNELS 3 Zrotation Yrotation Xrotation
				JOINT lowerneck
				{
					OFFSET -0.013390 0.211636 -0.033468
					CHANNELS 3 Zrotation Yrotation Xrotation
					JOINT upperneck
					{
						OFFSET 0.010113 0.088937 0.050410
						CHANNELS 3 Zrotation Yrotation Xrotation
						End Site
						{
							OFFSET 0.000000 0.000000 0.000000
						}
					}
				}
				JOINT lclavicle
				{
					OFFSET 0.071702 0.114000 -0.018898
					CHANNELS 3 Zrotation Yrotation Xrotation
					JOINT lshoulder
					{
						OFFSET 0.122921 0.045205 -0.019046
						CHANNELS 3 Zrotation Yrotation Xrotation
						JOINT lelbow
						{
							OFFSET 0.255332 -0.015649 -0.022946
							CHANNELS 3 Zrotation Yrotation Xrotation
							JOINT lwrist
							{
								OFFSET 0.265709 0.012698 -0.007375
								CHANNELS 3 Zrotation Yrotation Xrotation
								End Site
								{
									OFFSET 0.000000 0.000000 0.000000
								}
							}
						}
					}
				}
				JOINT rclavicle
				{
					OFFSET -0.082954 0.112472 -0.023707
					CHANNELS 3 Zrotation Yrotation Xrotation
					JOINT rshoulder
					{
						OFFSET -0.113228 0.046853 -0.008472
						CHANNELS 3 Zrotation Yrotation Xrotation
						JOINT relbow
						{
							OFFSET -0.260127 -0.014369 -0.031269
							CHANNELS 3 Zrotation Yrotation Xrotation
							JOINT rwrist
							{
								OFFSET -0.269108 0.006794 -0.006027
								CHANNELS 3 Zrotation Yrotation Xrotation
								End Site
								{
									OFFSET 0.000000 0.000000 0.000000
								}
							}
						}
					}
				}
			}
		}
	}
}
MOTION
Frames: 16
Frame Time: 0.033333
1.354995 0.367005 1.028817 -97.374311 -1.488846 82.331058 3.312387 -3.764199 -25.903357 -3.119220 3.501258 1.425168 -1.118528 8.236905 -16.455913 0.000000 -0.000000 0.000000 1.497887 -2.903166 13.565924 1.897539 6.528652 10.906704 0.514448 -1.604854 -14.802866 0.000000 -0.000000 0.000000 0.125862 9.411419 11.377355 0.171544 2.342449 -1.204682 0.338772 4.672436 3.934862 7.290747 -0.029776 -7.057621 -3.751614 -9.444218 8.684927 -20.575981 15.479893 1.076874 -61.296477 11.820229 4.160256 20.872787 -26.457796 -0.936599 6.565164 -13.096994 -19.571231 17.996739 6.578373 -6.866842 49.538317 36.792754 9.325243 -21.524219 31.681718 -18.961814 -9.215810 8.379319 -21.510356 
1.328372 0.365342 1.028163 -97.622675 -1.428117 82.525177 3.196618 -3.885919 -27.781863 -2.928285 3.716573 1.412907 -0.755232 7.667874 -15.633134 0.000000 -0.000000 0.000000 1.119555 -3.004041 14.912875 1.813994 6.823173 11.036221 0.973431 -1.572709 -14.538464 0.000000 -0.000000 0.000000 0.346945 9.619055 11.222164 0.021651 2.143885 -0.667553 0.118723 5.089338 3.624887 7.491864 -0.226084 -7.239013 -3.710453 -9.619409 8.583211 -20.347316 15.595323 0.144591 -60.628473 13.569895 3.732219 20.593671 -26.057959 -0.753787 6.434456 -12.557122 -19.280388 17.349004 7.108296 -6.917912 48.050433 38.097017 8.342239 -22.685260 33.230558 -20.303724 -10.763535 8.386068 -21.832055 
1.301273 0.365181 1.026681 -99.072045 -1.301535 82.791475 3.952848 -3.608905 -28.430396 -3.195005 4.355506 0.958794 -1.451995 7.628164 -15.333386 0.000000 -0.000000 0.000000 0.686501 -3.228618 15.681718 1.630798 7.724824 12.049153 1.706547 -0.355648 -14.335016 0.000000 -0.000000 0.000000 0.368932 10.346120 10.925510 -0.112522 2.551270 -0.368996 0.092873 5.483043 3.612235 7.524692 -0.079869 -7.168118 -3.446493 -9.735899 8.214740 -20.009872 15.798575 0.013278 -60.432530 14.105557 3.331986 20.818650 -25.519124 -1.027201 6.303539 -12.439773 -19.182658 16.582873 7.430568 -7.095773 47.399805 39.421115 7.669966 -23.364631 33.978898 -20.773402 -10.965234 8.403005 -22.193171 
1.264135 0.362403 1.024355 -100.545017 -1.776186 83.271200 3.884819 -3.846977 -27.975449 -3.205704 5.589588 0.180607 -2.275456 7.333088 -13.707062 0.000000 -0.000000 0.000000 -0.386961 -1.846402 16.742335 1.786340 8.215973 13.231314 2.094269 0.130113 -14.293002 0.000000 -0.000000 0.000000 -0.248250 10.792764 10.222629 -0.252381 2.916244 0.069029 -0.112628 5.700799 3.120789 7.663691 0.073225 -6.287710 -3.302654 -9.497120 7.496465 -19.686047 15.968672 0.107281 -60.329273 15.144070 3.213078 21.027717 -25.353573 -2.078416 7.818780 -11.971101 -19.418472 15.951904 7.702386 -6.796964 49.172706 40.172416 9.046496 -25.594467 34.376301 -23.440518 -12.157059 8.007330 -20.694028 
1.244355 0.360983 1.021791 -100.704901 -1.056049 83.728085 4.626954 -4.207504 -28.032369 -3.171419 5.295400 0.542688 -2.704123 7.250034 -11.422491 0.000000 -0.000000 0.000000 -0.062690 -2.190586 17.087204 1.977162 8.923603 13.852186 1.602516 0.041309 -14.224355 0.000000 -0.000000 0.000000 0.562189 10.460431 10.595235 -0.344053 2.681428 -0.746392 -0.281300 5.784122 3.184440 7.463565 0.317829 -6.557973 -3.448253 -9.223326 7.998189 -19.414923 16.377649 -0.006545 -60.747086 15.148560 2.959879 21.234657 -24.988923 -1.926104 7.637912 -12.141356 -19.790361 15.543423 7.771840 -6.921300 49.692565 40.579502 9.465204 -25.122286 34.323599 -22.665183 -12.248316 7.979887 -21.067470 
1.212906 0.359701 1.016620 -102.554966 -0.955086 84.714637 4.732728 -3.082382 -26.965914 -3.107670 5.244875 0.373369 -2.620432 7.736207 -10.906536 0.000000 -0.000000 0.000000 -1.057852 -2.561774 17.013921 2.081994 10.656131 15.363463 1.673838 0.832488 -13.945401 0.000000 -0.000000 0.000000 0.097359 10.875840 8.512331 -0.194072 3.317197 0.313547 -0.182560 6.082682 3.182705 7.304043 0.438937 -6.671378 -3.455116 -8.518304 7.944354 -19.499214 16.296755 0.047846 -60.847145 15.067870 3.137046 21.207760 -24.873557 -1.861080 8.757670 -11.959298 -20.848534 16.435831 8.038870 -6.161840 47.539404 41.080879 8.376855 -22.948010 34.247839 -19.959972 -11.967803 8.671648 -20.539462 
1.180083 0.356587 1.010394 -104.042766 -1.025144 85.456466 4.761090 -3.625478 -24.836120 -2.998567 6.115532 -0.233762 -3.362816 8.324682 -9.761446 0.000000 -0.000000 0.000000 -2.228857 -1.859058 17.285353 2.457070 11.034904 16.923970 2.696376 1.627293 -13.247335 0.000000 -0.000000 0.000000 -0.039755 11.031059 7.574280 -0.288409 3.718185 0.535629 -0.394203 6.309846 2.793433 7.417066 0.754513 -6.605602 -3.615511 -8.378983 7.933060 -19.730210 16.432207 0.038597 -60.754895 14.700512 3.408382 21.497613 -24.509808 -2.359400 8.101339 -12.619979 -20.565511 17.120661 7.855680 -5.616495 48.732692 40.421213 9.670199 -22.104333 33.626974 -19.008999 -11.098361 8.930742 -20.586703 
1.144156 0.353471 1.003747 -105.091335 -0.507909 85.806018 4.797559 -3.350350 -22.239245 -3.126869 5.526111 0.450590 -2.885855 8.563196 -9.423060 0.000000 -0.000000 0.000000 -2.756401 -1.583529 18.193884 2.864427 11.666877 18.321598 2.847712 2.244230 -12.399366 0.000000 -0.000000 0.000000 0.493098 10.638887 6.732722 -0.146798 3.855480 1.028015 -0.628386 6.496078 2.640133 7.038919 1.168827 -6.953490 -3.766820 -7.721249 8.012967 -20.493055 16.431067 -0.569721 -60.544363 14.194101 3.484290 21.352043 -24.358714 -2.811906 8.787556 -11.810776 -19.782685 18.252895 7.713383 -5.035824 49.887748 39.484098 10.777310 -20.492302 33.056247 -17.474376 -11.398794 9.006532 -19.759895 
1.105719 0.348555 0.995201 -105.571202 -0.559796 86.574310 4.078583 -4.225763 -19.946676 -3.283028 4.269528 1.725420 -1.085614 9.502675 -8.274838 0.000000 -0.000000 0.000000 -4.108210 -1.305111 18.710546 3.412420 11.910203 19.770883 3.468196 2.994522 -10.817015 0.000000 -0.000000 0.000000 0.396547 10.428502 5.310505 0.052663 3.740496 1.639562 -0.880698 6.554902 2.288241 6.792964 1.456918 -7.240597 -3.739619 -7.304394 8.074189 -21.120694 16.100079 -0.737803 -60.516849 13.487164 4.250118 21.180933 -24.311664 -2.568772 9.699688 -11.776012 -20.002587 19.779007 7.484972 -3.842978 50.449823 37.618662 11.862371 -19.333186 32.585763 -15.856033 -11.412024 8.588126 -19.638488 
1.053257 0.342154 0.985172 -105.289997 -0.772186 88.238134 2.800047 -4.421545 -18.306874 -3.651989 6.836817 1.458967 0.253980 8.874224 -1.251812 0.000000 -0.000000 0.000000 -5.494199 -1.061958 17.848881 3.676853 11.052043 22.705894 4.936932 3.779955 -5.944960 0.000000 -0.000000 0.000000 -0.648452 9.965622 3.706412 0.631206 3.200281 0.824027 -0.803398 6.311272 1.615218 6.087365 1.332980 -6.901556 -3.256812 -5.935391 8.165107 -22.360187 16.153560 -1.304441 -60.365830 12.344910 5.150131 21.171865 -23.796225 -2.783518 9.928203 -11.594062 -19.359569 22.569020 5.614562 -2.586699 51.565690 34.412736 13.809345 -17.135948 31.493560 -13.389740 -9.537519 8.677625 -18.546915 
1.009573 0.336274 0.982964 -102.220482 -1.587678 88.504273 0.536458 -4.012427 -18.199089 -3.904960 6.886564 2.666333 2.128004 9.347411 4.351391 0.000000 -0.000000 0.000000 -6.310073 -1.705693 17.216342 3.525664 9.060529 26.275386 7.112675 3.472951 2.403717 0.000000 -0.000000 0.000000 -1.477924 8.868675 5.024519 0.577645 2.000439 -0.990006 -0.822869 5.149761 1.164227 5.408388 0.602144 -7.851352 -2.453030 -4.815367 9.257026 -24.141162 15.419873 -1.822601 -59.729892 10.183249 5.720929 20.551990 -22.321922 -2.883416 11.246618 -11.997515 -18.984009 25.500164 3.814285 -2.586155 52.869458 30.759531 14.981344 -16.191868 29.246564 -13.031854 -10.758874 8.356148 -15.157455 
0.968889 0.329023 0.984884 -99.078049 -2.834501 87.800519 -1.322296 -6.161521 -17.821303 -5.548681 5.859130 7.320631 5.786055 7.956166 1.798625 0.000000 -0.000000 0.000000 -7.328444 -2.001253 14.676494 3.693602 7.637383 33.370494 9.751183 2.753456 12.658685 0.000000 -0.000000 0.000000 -2.264724 8.502847 5.447456 0.708001 0.914391 -0.229882 -1.113675 4.286420 1.299597 4.575360 -0.708638 -8.553045 -1.348548 -3.798228 8.917871 -25.500869 11.789796 -1.446152 -60.857845 6.038986 6.791144 21.409046 -19.711130 -3.692278 11.399964 -11.946592 -18.907023 26.718421 3.054741 -2.024830 54.483465 25.329036 15.482222 -17.660473 27.555077 -13.680801 -8.051988 8.874923 -15.603494 
0.930412 0.324521 0.990368 -97.428679 -3.293474 86.601180 -3.249381 -6.389975 -15.540202 -5.856733 3.697716 10.036630 7.686839 8.312690 -0.733328 0.000000 -0.000000 0.000000 -6.609441 -1.003468 10.131813 3.324896 6.583610 43.659819 9.141541 -0.782801 18.086044 0.000000 -0.000000 0.000000 -2.409188 7.407673 6.918986 0.694118 1.123471 -0.330823 -1.218142 3.670682 1.293370 4.133127 -1.745948 -8.323327 -0.718313 -2.691225 8.880193 -26.907200 8.178630 -1.002261 -61.209673 2.325842 7.725473 21.467146 -18.498548 -4.638425 11.741616 -12.066655 -18.670309 27.658511 3.632830 -0.589133 55.821410 20.291643 15.494549 -18.280097 23.544369 -15.062689 -5.731860 9.093275 -15.621312 
0.891410 0.321079 0.995726 -96.041253 -3.215561 85.173671 -4.877376 -6.111625 -11.492905 -5.580083 2.036072 10.158634 8.503258 8.678563 -3.114785 0.000000 -0.000000 0.000000 -5.821331 -0.586049 5.826072 -0.159310 3.002686 51.920799 2.690394 -7.858797 12.356149 0.000000 -0.000000 0.000000 -2.377689 5.853073 7.599667 0.801330 1.213899 -0.442922 -1.048125 2.660536 1.676133 4.093607 -1.867113 -7.050715 -0.323696 -1.339758 9.306604 -27.505003 5.427493 -0.219571 -61.563087 -1.172170 8.999416 20.672502 -19.424129 -3.818084 13.017520 -11.904200 -20.256333 27.572219 4.167372 0.082737 58.032073 16.334363 16.310070 -16.499832 17.618003 -13.020976 -5.259625 7.217590 -15.011646 
0.854941 0.318940 1.002333 -93.239560 -2.685047 83.623475 -5.787713 -5.501899 -7.341159 -5.415342 -0.741794 10.127223 7.789053 8.178370 -5.037158 0.000000 -0.000000 0.000000 -5.376805 -1.548685 2.736990 -3.586761 -0.462264 55.323351 -0.962394 -11.046431 3.799166 0.000000 -0.000000 0.000000 -2.153164 3.811175 8.605315 1.038528 -0.085055 -0.771594 -0.931640 1.319129 1.933067 4.408896 -0.899981 -6.204134 -0.065373 -1.003291 10.017125 -27.567945 3.792879 -0.233689 -61.806125 -4.836958 10.009590 20.361358 -21.297168 -3.214784 12.057093 -12.708143 -20.223546 28.222955 3.637232 -0.292208 59.350512 12.995124 16.156589 -15.173232 12.281097 -10.158263 -0.914237 6.494069 -12.995145 
0.820295 0.316807 1.008149 -90.677556 -2.069028 82.827512 -6.092727 -4.530552 -3.352595 -5.344585 -3.459603 8.605173 7.204046 7.751330 -6.382801 0.000000 -0.000000 0.000000 -5.368359 -1.953920 -0.847998 -5.411609 -3.836734 54.769561 -1.746749 -13.355442 -3.940573 0.000000 -0.000000 0.000000 -1.927223 1.693869 8.975242 1.332684 -1.224075 -1.491006 -0.836005 0.041373 2.024931 4.364999 -0.170446 -4.851962 0.590396 -0.928732 9.596739 -27.490032 2.577768 -0.114720 -61.594982 -8.278809 11.259906 20.080364 -23.871034 -3.344379 14.273732 -13.799716 -21.745821 28.811578 2.491485 0.222563 60.188271 8.849836 16.098796 -14.466248 9.963974 -7.449560 -2.170361 6.572317 -11.220359 
